<svg width="300" height="300" viewBox="0 0 300 300" fill="none" xmlns="http://www.w3.org/2000/svg">
<rect width="300" height="300" fill="#E5E5E5"/>
<rect width="600" height="600" transform="translate(-150 -150)" fill="#E8E7D1"/>
<rect width="300" height="300" rx="65" fill="#E8E7D1"/>
<line x1="223" y1="297" x2="223" y2="232" stroke="#686750" stroke-width="4" stroke-linecap="round"/>
<path d="M223 230H155" stroke="#686750" stroke-width="4" stroke-linecap="square"/>
<line x1="155" y1="229" x2="155" y2="164" stroke="#686750" stroke-width="4" stroke-linecap="round"/>
<path d="M155 164H87" stroke="#686750" stroke-width="4" stroke-linecap="round"/>
<line x1="86" y1="164" x2="86" y2="99" stroke="#686750" stroke-width="4" stroke-linecap="round"/>
<path d="M86 97L3 97" stroke="#686750" stroke-width="4" stroke-linecap="square"/>
<path d="M16.2083 81L42.6221 35.25L69.0359 81H16.2083Z" fill="#E8E7D1" stroke="#686750" stroke-width="4"/>
<g clip-path="url(#clip0_0_1)">
<path d="M42.5264 72.2299C43.018 72.2361 43.4114 71.8427 43.4051 71.3511L43.3888 70.0712L46.1152 70.1058C46.6067 70.1121 47.0002 69.7187 46.994 69.2271C46.9877 68.7356 46.5841 68.332 46.0926 68.3258L43.366 68.2911L43.3333 65.731L44.6132 65.7473C45.1047 65.7535 45.4982 65.3601 45.4919 64.8685C45.4857 64.3769 45.0821 63.9734 44.5906 63.9671L43.3106 63.9509L43.2492 59.1442C44.3054 58.9771 45.2744 58.4893 46.0392 57.7245C47.0145 56.7492 47.5419 55.4426 47.5241 54.0456C47.5064 52.6486 46.9457 51.3282 45.9452 50.3278C44.9448 49.3273 43.6244 48.7666 42.2273 48.7488C40.8302 48.731 39.5237 49.2583 38.5484 50.2336C37.5731 51.2089 37.0458 52.5155 37.0636 53.9125C37.0813 55.3096 37.6421 56.63 38.6425 57.6304C39.4269 58.4149 40.4084 58.9275 41.469 59.1214L41.5417 64.8093C41.5417 64.8124 41.5413 64.8152 41.5413 64.8183C41.5414 64.8213 41.5419 64.8242 41.5419 64.8272L41.5971 69.1458C41.5971 69.1501 41.5965 69.1543 41.5966 69.1586C41.5966 69.163 41.5973 69.1672 41.5974 69.1715L41.625 71.3287C41.6313 71.8201 42.0348 72.2237 42.5264 72.2299ZM38.8437 53.9351C38.832 53.0135 39.1798 52.1516 39.8231 51.5083C40.4664 50.8649 41.3283 50.5171 42.2499 50.5288C43.1715 50.5405 44.0425 50.9104 44.7024 51.5703C45.3624 52.2303 45.7323 53.1012 45.7439 54.0228C45.7556 54.9444 45.4078 55.8062 44.7644 56.4495C44.121 57.0929 43.2592 57.4408 42.3376 57.429C41.4161 57.4174 40.5451 57.0475 39.8852 56.3876C39.2252 55.7276 38.8554 54.8566 38.8437 53.9351Z" fill="#686750"/>
</g>
<path d="M264 72.5C264 80.4523 257.341 87 249 87C240.659 87 234 80.4523 234 72.5C234 64.5477 240.659 58 249 58C257.341 58 264 64.5477 264 72.5Z" fill="#E8E7D1" stroke="#686750" stroke-width="4"/>
<line x1="242.39" y1="87.2489" x2="203.798" y2="138.167" stroke="#686750" stroke-width="4"/>
<path d="M204 138L196 188.075" stroke="#686750" stroke-width="4" stroke-linecap="round"/>
<path d="M203 138L164 162" stroke="#686750" stroke-width="4" stroke-linecap="round"/>
<line x1="228.582" y1="102.758" x2="164.586" y2="89.1549" stroke="#686750" stroke-width="4" stroke-linecap="round"/>
<line x1="224.702" y1="107.65" x2="161.65" y2="97.2976" stroke="#686750" stroke-width="4" stroke-linecap="round"/>
<path d="M1 97H86V299H66C30.1015 299 1 269.899 1 234V97Z" fill="#686750"/>
<rect x="82" y="163" width="75" height="136" fill="#686750"/>
<rect x="153" y="228" width="70" height="71" fill="#686750"/>
<defs>
<clipPath id="clip0_0_1">
<rect width="19.1724" height="19.6664" fill="white" transform="translate(56.4632 60.1312) rotate(135)"/>
</clipPath>
</defs>
</svg>
